Project World {
  database_type: 'PostgreSQL'
  Note: '''
    # World statistics
    This database was created by Jack Beerman. If there are problems it is his fault.
  '''
}
Table country as CY {
country_code        varchar [pk]
country_name_wb     varchar 
country_longname    varchar
currency_unit       varchar
region              varchar
income_group        varchar


  note: "Data on countries"
}
Table world as WD{
year int [pk]
world_access_to_clean_fuels_and_technologies_for_cooking float
world_access_to_electricity float
world_agricultural_land float
world_agriculture float
world_annual_freshwater_withdrawals float
world_annualized_average_growth_rate_in_per_capita_real_survey float
world_cause_of_death float
world_children_in_employment float
world_co2_emissions float
world_coastal_protection float
world_control_of_corruption float
world_cooling_degree_days float
world_economic_and_social_rights_performance_score float
world_electricity_production_from_coal_sources float
world_energy_imports float
world_energy_intensity_level_of_primary_energy float
world_energy_use float
world_fertility_rate float
world_food_production_index float
world_forest_area float
world_fossil_fuel_energy_consumption float
world_freshwater_withdrawal float
world_gdp_growth float
world_ghg_net_emissions float
world_gini_index float
world_government_effectiveness float
world_government_expenditure_on_education float
world_gross_school_enrollment float
world_heat_index_35 float
world_heating_degree_days float
world_hospital_beds float
world_income_share_held_by_lowest_20pct float
world_individuals_using_the_internet float
world_labor_force_participation_rate float
world_land_surface_temperature float
world_life_expectancy_at_birth float
world_literacy_rate float
world_mammal_species float
world_mean_drought_index float
world_methane_emissions float
world_mortality_rate float
world_natural_resources_depletion float
world_net_forest_depletion float
world_net_migration float
world_nitrous_oxide_emissions float
world_patent_applications float
world_people_using_safely_managed_drinking_water_services float
world_people_using_safely_managed_sanitation_services float
world_pm2_5_air_pollution float
world_political_stability_and_absence_of_violence float
world_population_ages_65_and_above float
world_population_density float
world_poverty_headcount_ratio_at_national_poverty_lines float
world_prevalence_of_overweight float
world_prevalence_of_undernourishment float
world_primary_school_enrollment float
world_proportion_of_seats_held_by_women_in_national_parliament float
world_ratio_of_female_to_male_labor_force_participation_rate float
world_regulatory_quality float
world_renewable_electricity_output float
world_renewable_energy_consumption float
world_research_and_development_expenditure float
world_rule_of_law float
world_scientific_and_technical_journal_articles float
world_strength_of_legal_rights_index float
world_terrestrial_and_marine_protected_areas float
world_tree_cover_loss float
world_unemployment float
world_unmet_need_for_contraception float
world_voice_and_accountability float
world_water_quality float

  note: "Data on world"
}
Table timeseries as T{
   country_name_wb varchar 
country_code varchar [pk]
year int [pk]
access_to_clean_fuels_and_technologies_for_cooking float
access_to_electricity float
agricultural_land float
agriculture float
annual_freshwater_withdrawals float
annualized_average_growth_rate_in_per_capita_real_survey float
cause_of_death float
children_in_employment float
co2_emissions float
coastal_protection float
control_of_corruption float
cooling_degree_days float
economic_and_social_rights_performance_score float
electricity_production_from_coal_sources float
energy_imports float
energy_intensity_level_of_primary_energy float
energy_use float
fertility_rate float
food_production_index float
forest_area float
fossil_fuel_energy_consumption float
freshwater_withdrawal float
gdp_growth float
ghg_net_emissions float
gini_index float
government_effectiveness float
government_expenditure_on_education float
gross_school_enrollment float
heat_index_35 float
heating_degree_days float
hospital_beds float
income_share_held_by_lowest_20pct float
individuals_using_the_internet float
labor_force_participation_rate float
land_surface_temperature float
life_expectancy_at_birth float
literacy_rate float
mammal_species float
mean_drought_index float
methane_emissions float
mortality_rate float
natural_resources_depletion float
net_forest_depletion float
net_migration float
nitrous_oxide_emissions float
patent_applications float
people_using_safely_managed_drinking_water_services float
people_using_safely_managed_sanitation_services float
pm2_5_air_pollution float
political_stability_and_absence_of_violence float
population_ages_65_and_above float
population_density float
poverty_headcount_ratio_at_national_poverty_lines float
prevalence_of_overweight float
prevalence_of_undernourishment float
primary_school_enrollment float
proportion_of_seats_held_by_women_in_national_parliament float
ratio_of_female_to_male_labor_force_participation_rate float
regulatory_quality float
renewable_electricity_output float
renewable_energy_consumption float
research_and_development_expenditure float
rule_of_law float
scientific_and_technical_journal_articles float
strength_of_legal_rights_index float
terrestrial_and_marine_protected_areas float
tree_cover_loss float
unemployment float
unmet_need_for_contraception float
voice_and_accountability float
water_quality float
democracy float

  note: "Timeseries stats"
}

Ref: CY.country_name_wb < T.country_name_wb  
Ref: T.year < WD.year

